# xmcd CD database file
#
# Track frame offsets:
#	150
#	20157
#	43989
#	65867
#	80427
#	96331
#	120250
#	141605
#	156382
#	204316
#	227158
#
# Disc length: 3221 seconds
#
# Revision: 0
# Processed by: cddbd v1.4PL0 Copyright (c) Steve Scherf et al.
# Submitted via: CDex 1.51
#
DISCID=a30c930b
DTITLE=Rude Dog's Rhythym Revue - The Dog Is In The House
DYEAR=1900
DGENRE=Blues
TTITLE0=Crab Town Crawl
TTITLE1=They Call Me The Rude Dog
TTITLE2=I'll Play The Blues For You
TTITLE3=The Dog Is In The House
TTITLE4=Little By Little
TTITLE5=Dirty Lipstick
TTITLE6=I'm Ready
TTITLE7=Katie May
TTITLE8=Hangman's Blues
TTITLE9=Love In Vain
TTITLE10=Sonny's Revenge
EXTD=
EXTT0=
EXTT1=
EXTT2=
EXTT3=
EXTT4=
EXTT5=
EXTT6=
EXTT7=
EXTT8=
EXTT9=
EXTT10=
PLAYORDER=
